solid inlet
   facet normal -1.000000e+00 0.000000e+00 0.000000e+00
      outer loop
         vertex -5.000000e+00 0.000000e+00 -6.000000e+00
         vertex -5.000000e+00 -6.070099e-01 -5.969216e+00
         vertex -5.000000e+00 0.000000e+00 0.000000e+00
      endloop
   endfacet
   facet normal -1.000000e+00 0.000000e+00 0.000000e+00
      outer loop
         vertex -5.000000e+00 0.000000e+00 -6.000000e+00
         vertex -5.000000e+00 0.000000e+00 0.000000e+00
         vertex -5.000000e+00 6.070099e-01 -5.969216e+00
      endloop
   endfacet
   facet normal -1.000000e+00 -0.000000e+00 0.000000e+00
      outer loop
         vertex -5.000000e+00 2.366135e+00 -5.513747e+00
         vertex -5.000000e+00 1.796179e+00 -5.724835e+00
         vertex -5.000000e+00 0.000000e+00 0.000000e+00
      endloop
   endfacet
   facet normal -1.000000e+00 0.000000e+00 0.000000e+00
      outer loop
         vertex -5.000000e+00 0.000000e+00 0.000000e+00
         vertex -5.000000e+00 1.796179e+00 -5.724835e+00
         vertex -5.000000e+00 1.207791e+00 -5.877180e+00
      endloop
   endfacet
   facet normal -1.000000e+00 0.000000e+00 0.000000e+00
      outer loop
         vertex -5.000000e+00 0.000000e+00 0.000000e+00
         vertex -5.000000e+00 1.207791e+00 -5.877180e+00
         vertex -5.000000e+00 6.070099e-01 -5.969216e+00
      endloop
   endfacet
   facet normal -1.000000e+00 -0.000000e+00 0.000000e+00
      outer loop
         vertex -5.000000e+00 3.908235e+00 -4.552549e+00
         vertex -5.000000e+00 3.427609e+00 -4.924581e+00
         vertex -5.000000e+00 0.000000e+00 0.000000e+00
      endloop
   endfacet
   facet normal -1.000000e+00 0.000000e+00 0.000000e+00
      outer loop
         vertex -5.000000e+00 0.000000e+00 0.000000e+00
         vertex -5.000000e+00 3.427609e+00 -4.924581e+00
         vertex -5.000000e+00 2.911812e+00 -5.246080e+00
      endloop
   endfacet
   facet normal -1.000000e+00 0.000000e+00 0.000000e+00
      outer loop
         vertex -5.000000e+00 0.000000e+00 0.000000e+00
         vertex -5.000000e+00 2.911812e+00 -5.246080e+00
         vertex -5.000000e+00 2.366135e+00 -5.513747e+00
      endloop
   endfacet
   facet normal -1.000000e+00 -0.000000e+00 0.000000e+00
      outer loop
         vertex -5.000000e+00 5.091866e+00 -3.173784e+00
         vertex -5.000000e+00 4.744655e+00 -3.672636e+00
         vertex -5.000000e+00 0.000000e+00 0.000000e+00
      endloop
   endfacet
   facet normal -1.000000e+00 0.000000e+00 0.000000e+00
      outer loop
         vertex -5.000000e+00 0.000000e+00 0.000000e+00
         vertex -5.000000e+00 4.744655e+00 -3.672636e+00
         vertex -5.000000e+00 4.348757e+00 -4.133801e+00
      endloop
   endfacet
   facet normal -1.000000e+00 0.000000e+00 0.000000e+00
      outer loop
         vertex -5.000000e+00 0.000000e+00 0.000000e+00
         vertex -5.000000e+00 4.348757e+00 -4.133801e+00
         vertex -5.000000e+00 3.908235e+00 -4.552549e+00
      endloop
   endfacet
   facet normal -1.000000e+00 -0.000000e+00 0.000000e+00
      outer loop
         vertex -5.000000e+00 5.808463e+00 -1.503915e+00
         vertex -5.000000e+00 5.626513e+00 -2.083832e+00
         vertex -5.000000e+00 0.000000e+00 0.000000e+00
      endloop
   endfacet
   facet normal -1.000000e+00 0.000000e+00 0.000000e+00
      outer loop
         vertex -5.000000e+00 0.000000e+00 0.000000e+00
         vertex -5.000000e+00 5.626513e+00 -2.083832e+00
         vertex -5.000000e+00 5.386827e+00 -2.642365e+00
      endloop
   endfacet
   facet normal -1.000000e+00 0.000000e+00 0.000000e+00
      outer loop
         vertex -5.000000e+00 0.000000e+00 0.000000e+00
         vertex -5.000000e+00 5.386827e+00 -2.642365e+00
         vertex -5.000000e+00 5.091866e+00 -3.173784e+00
      endloop
   endfacet
   facet normal -1.000000e+00 0.000000e+00 -0.000000e+00
      outer loop
         vertex -5.000000e+00 5.992299e+00 3.038950e-01
         vertex -5.000000e+00 5.992299e+00 -3.038950e-01
         vertex -5.000000e+00 0.000000e+00 0.000000e+00
      endloop
   endfacet
   facet normal -1.000000e+00 0.000000e+00 0.000000e+00
      outer loop
         vertex -5.000000e+00 0.000000e+00 0.000000e+00
         vertex -5.000000e+00 5.992299e+00 -3.038950e-01
         vertex -5.000000e+00 5.930810e+00 -9.085667e-01
      endloop
   endfacet
   facet normal -1.000000e+00 0.000000e+00 0.000000e+00
      outer loop
         vertex -5.000000e+00 0.000000e+00 0.000000e+00
         vertex -5.000000e+00 5.930810e+00 -9.085667e-01
         vertex -5.000000e+00 5.808463e+00 -1.503915e+00
      endloop
   endfacet
   facet normal -1.000000e+00 0.000000e+00 -0.000000e+00
      outer loop
         vertex -5.000000e+00 5.626513e+00 2.083832e+00
         vertex -5.000000e+00 5.808463e+00 1.503915e+00
         vertex -5.000000e+00 0.000000e+00 0.000000e+00
      endloop
   endfacet
   facet normal -1.000000e+00 0.000000e+00 0.000000e+00
      outer loop
         vertex -5.000000e+00 0.000000e+00 0.000000e+00
         vertex -5.000000e+00 5.808463e+00 1.503915e+00
         vertex -5.000000e+00 5.930810e+00 9.085667e-01
      endloop
   endfacet
   facet normal -1.000000e+00 0.000000e+00 0.000000e+00
      outer loop
         vertex -5.000000e+00 0.000000e+00 0.000000e+00
         vertex -5.000000e+00 5.930810e+00 9.085667e-01
         vertex -5.000000e+00 5.992299e+00 3.038950e-01
      endloop
   endfacet
   facet normal -1.000000e+00 0.000000e+00 -0.000000e+00
      outer loop
         vertex -5.000000e+00 4.744655e+00 3.672636e+00
         vertex -5.000000e+00 5.091866e+00 3.173784e+00
         vertex -5.000000e+00 0.000000e+00 0.000000e+00
      endloop
   endfacet
   facet normal -1.000000e+00 0.000000e+00 0.000000e+00
      outer loop
         vertex -5.000000e+00 0.000000e+00 0.000000e+00
         vertex -5.000000e+00 5.091866e+00 3.173784e+00
         vertex -5.000000e+00 5.386827e+00 2.642365e+00
      endloop
   endfacet
   facet normal -1.000000e+00 0.000000e+00 0.000000e+00
      outer loop
         vertex -5.000000e+00 0.000000e+00 0.000000e+00
         vertex -5.000000e+00 5.386827e+00 2.642365e+00
         vertex -5.000000e+00 5.626513e+00 2.083832e+00
      endloop
   endfacet
   facet normal -1.000000e+00 0.000000e+00 -0.000000e+00
      outer loop
         vertex -5.000000e+00 3.427609e+00 4.924581e+00
         vertex -5.000000e+00 3.908235e+00 4.552549e+00
         vertex -5.000000e+00 0.000000e+00 0.000000e+00
      endloop
   endfacet
   facet normal -1.000000e+00 0.000000e+00 0.000000e+00
      outer loop
         vertex -5.000000e+00 0.000000e+00 0.000000e+00
         vertex -5.000000e+00 3.908235e+00 4.552549e+00
         vertex -5.000000e+00 4.348757e+00 4.133801e+00
      endloop
   endfacet
   facet normal -1.000000e+00 0.000000e+00 0.000000e+00
      outer loop
         vertex -5.000000e+00 0.000000e+00 0.000000e+00
         vertex -5.000000e+00 4.348757e+00 4.133801e+00
         vertex -5.000000e+00 4.744655e+00 3.672636e+00
      endloop
   endfacet
   facet normal -1.000000e+00 0.000000e+00 -0.000000e+00
      outer loop
         vertex -5.000000e+00 1.796179e+00 5.724835e+00
         vertex -5.000000e+00 2.366135e+00 5.513747e+00
         vertex -5.000000e+00 0.000000e+00 0.000000e+00
      endloop
   endfacet
   facet normal -1.000000e+00 0.000000e+00 0.000000e+00
      outer loop
         vertex -5.000000e+00 0.000000e+00 0.000000e+00
         vertex -5.000000e+00 2.366135e+00 5.513747e+00
         vertex -5.000000e+00 2.911812e+00 5.246080e+00
      endloop
   endfacet
   facet normal -1.000000e+00 0.000000e+00 0.000000e+00
      outer loop
         vertex -5.000000e+00 0.000000e+00 0.000000e+00
         vertex -5.000000e+00 2.911812e+00 5.246080e+00
         vertex -5.000000e+00 3.427609e+00 4.924581e+00
      endloop
   endfacet
   facet normal -1.000000e+00 0.000000e+00 -0.000000e+00
      outer loop
         vertex -5.000000e+00 2.664535e-15 6.000000e+00
         vertex -5.000000e+00 6.070099e-01 5.969216e+00
         vertex -5.000000e+00 0.000000e+00 0.000000e+00
      endloop
   endfacet
   facet normal -1.000000e+00 0.000000e+00 0.000000e+00
      outer loop
         vertex -5.000000e+00 0.000000e+00 0.000000e+00
         vertex -5.000000e+00 6.070099e-01 5.969216e+00
         vertex -5.000000e+00 1.207791e+00 5.877180e+00
      endloop
   endfacet
   facet normal -1.000000e+00 0.000000e+00 0.000000e+00
      outer loop
         vertex -5.000000e+00 0.000000e+00 0.000000e+00
         vertex -5.000000e+00 1.207791e+00 5.877180e+00
         vertex -5.000000e+00 1.796179e+00 5.724835e+00
      endloop
   endfacet
   facet normal -1.000000e+00 0.000000e+00 0.000000e+00
      outer loop
         vertex -5.000000e+00 -1.796179e+00 5.724835e+00
         vertex -5.000000e+00 -1.207791e+00 5.877180e+00
         vertex -5.000000e+00 0.000000e+00 0.000000e+00
      endloop
   endfacet
   facet normal -1.000000e+00 0.000000e+00 0.000000e+00
      outer loop
         vertex -5.000000e+00 0.000000e+00 0.000000e+00
         vertex -5.000000e+00 -1.207791e+00 5.877180e+00
         vertex -5.000000e+00 -6.070099e-01 5.969216e+00
      endloop
   endfacet
   facet normal -1.000000e+00 0.000000e+00 0.000000e+00
      outer loop
         vertex -5.000000e+00 0.000000e+00 0.000000e+00
         vertex -5.000000e+00 -6.070099e-01 5.969216e+00
         vertex -5.000000e+00 2.664535e-15 6.000000e+00
      endloop
   endfacet
   facet normal -1.000000e+00 0.000000e+00 0.000000e+00
      outer loop
         vertex -5.000000e+00 -3.427609e+00 4.924581e+00
         vertex -5.000000e+00 -2.911812e+00 5.246080e+00
         vertex -5.000000e+00 0.000000e+00 0.000000e+00
      endloop
   endfacet
   facet normal -1.000000e+00 0.000000e+00 0.000000e+00
      outer loop
         vertex -5.000000e+00 0.000000e+00 0.000000e+00
         vertex -5.000000e+00 -2.911812e+00 5.246080e+00
         vertex -5.000000e+00 -2.366135e+00 5.513747e+00
      endloop
   endfacet
   facet normal -1.000000e+00 0.000000e+00 0.000000e+00
      outer loop
         vertex -5.000000e+00 0.000000e+00 0.000000e+00
         vertex -5.000000e+00 -2.366135e+00 5.513747e+00
         vertex -5.000000e+00 -1.796179e+00 5.724835e+00
      endloop
   endfacet
   facet normal -1.000000e+00 0.000000e+00 0.000000e+00
      outer loop
         vertex -5.000000e+00 -4.744655e+00 3.672636e+00
         vertex -5.000000e+00 -4.348757e+00 4.133801e+00
         vertex -5.000000e+00 0.000000e+00 0.000000e+00
      endloop
   endfacet
   facet normal -1.000000e+00 0.000000e+00 0.000000e+00
      outer loop
         vertex -5.000000e+00 0.000000e+00 0.000000e+00
         vertex -5.000000e+00 -4.348757e+00 4.133801e+00
         vertex -5.000000e+00 -3.908235e+00 4.552549e+00
      endloop
   endfacet
   facet normal -1.000000e+00 0.000000e+00 0.000000e+00
      outer loop
         vertex -5.000000e+00 0.000000e+00 0.000000e+00
         vertex -5.000000e+00 -3.908235e+00 4.552549e+00
         vertex -5.000000e+00 -3.427609e+00 4.924581e+00
      endloop
   endfacet
   facet normal -1.000000e+00 0.000000e+00 0.000000e+00
      outer loop
         vertex -5.000000e+00 -5.626513e+00 2.083832e+00
         vertex -5.000000e+00 -5.386827e+00 2.642365e+00
         vertex -5.000000e+00 0.000000e+00 0.000000e+00
      endloop
   endfacet
   facet normal -1.000000e+00 0.000000e+00 0.000000e+00
      outer loop
         vertex -5.000000e+00 0.000000e+00 0.000000e+00
         vertex -5.000000e+00 -5.386827e+00 2.642365e+00
         vertex -5.000000e+00 -5.091866e+00 3.173784e+00
      endloop
   endfacet
   facet normal -1.000000e+00 0.000000e+00 0.000000e+00
      outer loop
         vertex -5.000000e+00 0.000000e+00 0.000000e+00
         vertex -5.000000e+00 -5.091866e+00 3.173784e+00
         vertex -5.000000e+00 -4.744655e+00 3.672636e+00
      endloop
   endfacet
   facet normal -1.000000e+00 0.000000e+00 0.000000e+00
      outer loop
         vertex -5.000000e+00 -5.992299e+00 3.038950e-01
         vertex -5.000000e+00 -5.930810e+00 9.085667e-01
         vertex -5.000000e+00 0.000000e+00 0.000000e+00
      endloop
   endfacet
   facet normal -1.000000e+00 0.000000e+00 0.000000e+00
      outer loop
         vertex -5.000000e+00 0.000000e+00 0.000000e+00
         vertex -5.000000e+00 -5.930810e+00 9.085667e-01
         vertex -5.000000e+00 -5.808463e+00 1.503915e+00
      endloop
   endfacet
   facet normal -1.000000e+00 0.000000e+00 0.000000e+00
      outer loop
         vertex -5.000000e+00 0.000000e+00 0.000000e+00
         vertex -5.000000e+00 -5.808463e+00 1.503915e+00
         vertex -5.000000e+00 -5.626513e+00 2.083832e+00
      endloop
   endfacet
   facet normal -1.000000e+00 0.000000e+00 0.000000e+00
      outer loop
         vertex -5.000000e+00 -5.808463e+00 -1.503915e+00
         vertex -5.000000e+00 -5.930810e+00 -9.085667e-01
         vertex -5.000000e+00 0.000000e+00 0.000000e+00
      endloop
   endfacet
   facet normal -1.000000e+00 0.000000e+00 0.000000e+00
      outer loop
         vertex -5.000000e+00 0.000000e+00 0.000000e+00
         vertex -5.000000e+00 -5.930810e+00 -9.085667e-01
         vertex -5.000000e+00 -5.992299e+00 -3.038950e-01
      endloop
   endfacet
   facet normal -1.000000e+00 -0.000000e+00 0.000000e+00
      outer loop
         vertex -5.000000e+00 0.000000e+00 0.000000e+00
         vertex -5.000000e+00 -5.992299e+00 -3.038950e-01
         vertex -5.000000e+00 -5.992299e+00 3.038950e-01
      endloop
   endfacet
   facet normal -1.000000e+00 0.000000e+00 0.000000e+00
      outer loop
         vertex -5.000000e+00 -5.091866e+00 -3.173784e+00
         vertex -5.000000e+00 -5.386827e+00 -2.642365e+00
         vertex -5.000000e+00 0.000000e+00 0.000000e+00
      endloop
   endfacet
   facet normal -1.000000e+00 0.000000e+00 0.000000e+00
      outer loop
         vertex -5.000000e+00 0.000000e+00 0.000000e+00
         vertex -5.000000e+00 -5.386827e+00 -2.642365e+00
         vertex -5.000000e+00 -5.626513e+00 -2.083832e+00
      endloop
   endfacet
   facet normal -1.000000e+00 0.000000e+00 0.000000e+00
      outer loop
         vertex -5.000000e+00 0.000000e+00 0.000000e+00
         vertex -5.000000e+00 -5.626513e+00 -2.083832e+00
         vertex -5.000000e+00 -5.808463e+00 -1.503915e+00
      endloop
   endfacet
   facet normal -1.000000e+00 0.000000e+00 0.000000e+00
      outer loop
         vertex -5.000000e+00 -3.908235e+00 -4.552549e+00
         vertex -5.000000e+00 -4.348757e+00 -4.133801e+00
         vertex -5.000000e+00 0.000000e+00 0.000000e+00
      endloop
   endfacet
   facet normal -1.000000e+00 0.000000e+00 0.000000e+00
      outer loop
         vertex -5.000000e+00 0.000000e+00 0.000000e+00
         vertex -5.000000e+00 -4.348757e+00 -4.133801e+00
         vertex -5.000000e+00 -4.744655e+00 -3.672636e+00
      endloop
   endfacet
   facet normal -1.000000e+00 0.000000e+00 0.000000e+00
      outer loop
         vertex -5.000000e+00 0.000000e+00 0.000000e+00
         vertex -5.000000e+00 -4.744655e+00 -3.672636e+00
         vertex -5.000000e+00 -5.091866e+00 -3.173784e+00
      endloop
   endfacet
   facet normal -1.000000e+00 0.000000e+00 0.000000e+00
      outer loop
         vertex -5.000000e+00 -2.366135e+00 -5.513747e+00
         vertex -5.000000e+00 -2.911812e+00 -5.246080e+00
         vertex -5.000000e+00 0.000000e+00 0.000000e+00
      endloop
   endfacet
   facet normal -1.000000e+00 0.000000e+00 0.000000e+00
      outer loop
         vertex -5.000000e+00 0.000000e+00 0.000000e+00
         vertex -5.000000e+00 -2.911812e+00 -5.246080e+00
         vertex -5.000000e+00 -3.427609e+00 -4.924581e+00
      endloop
   endfacet
   facet normal -1.000000e+00 0.000000e+00 0.000000e+00
      outer loop
         vertex -5.000000e+00 0.000000e+00 0.000000e+00
         vertex -5.000000e+00 -3.427609e+00 -4.924581e+00
         vertex -5.000000e+00 -3.908235e+00 -4.552549e+00
      endloop
   endfacet
   facet normal -1.000000e+00 0.000000e+00 0.000000e+00
      outer loop
         vertex -5.000000e+00 -6.070099e-01 -5.969216e+00
         vertex -5.000000e+00 -1.207791e+00 -5.877180e+00
         vertex -5.000000e+00 0.000000e+00 0.000000e+00
      endloop
   endfacet
   facet normal -1.000000e+00 0.000000e+00 0.000000e+00
      outer loop
         vertex -5.000000e+00 0.000000e+00 0.000000e+00
         vertex -5.000000e+00 -1.207791e+00 -5.877180e+00
         vertex -5.000000e+00 -1.796179e+00 -5.724835e+00
      endloop
   endfacet
   facet normal -1.000000e+00 0.000000e+00 0.000000e+00
      outer loop
         vertex -5.000000e+00 0.000000e+00 0.000000e+00
         vertex -5.000000e+00 -1.796179e+00 -5.724835e+00
         vertex -5.000000e+00 -2.366135e+00 -5.513747e+00
      endloop
   endfacet
endsolid